<svg width="29" height="30" viewBox="0 0 29 30" fill="none" xmlns="http://www.w3.org/2000/svg">
<path d="M23.6833 26.25L16.0708 18.375C15.4667 18.875 14.7719 19.2708 13.9865 19.5625C13.201 19.8542 12.3653 20 11.4792 20C9.28403 20 7.42622 19.2135 5.90573 17.6406C4.38524 16.0677 3.625 14.1458 3.625 11.875C3.625 9.60417 4.38524 7.68229 5.90573 6.10938C7.42622 4.53646 9.28403 3.75 11.4792 3.75C13.6743 3.75 15.5321 4.53646 17.0526 6.10938C18.5731 7.68229 19.3333 9.60417 19.3333 11.875C19.3333 12.7917 19.1924 13.6562 18.9104 14.4688C18.6285 15.2812 18.2458 16 17.7625 16.625L25.375 24.5L23.6833 26.25ZM11.4792 17.5C12.9896 17.5 14.2734 16.9531 15.3307 15.8594C16.388 14.7656 16.9167 13.4375 16.9167 11.875C16.9167 10.3125 16.388 8.98438 15.3307 7.89062C14.2734 6.79688 12.9896 6.25 11.4792 6.25C9.96875 6.25 8.6849 6.79688 7.6276 7.89062C6.57031 8.98438 6.04167 10.3125 6.04167 11.875C6.04167 13.4375 6.57031 14.7656 7.6276 15.8594C8.6849 16.9531 9.96875 17.5 11.4792 17.5Z" fill="white"/>
</svg>
